<svg id="Capa_1" enable-background="new 0 0 511.998 511.998" height="512" viewBox="0 0 511.998 511.998" width="512" xmlns="http://www.w3.org/2000/svg"><g><path d="m511.978 142.414c.726-72.511-18.577-123.817-18.577-123.817l-80.927 52.62z" fill="#a05f4b"/><path d="m493.401 18.597s-51.307-19.303-123.817-18.577l57.044 85.351z" fill="#c9885b"/><path d="m367.371 116.32 135.213 106.907c6.538-28.62 9.145-55.962 9.394-80.812l-71.197-71.197z" fill="#e1ebf0"/><path d="m440.781 71.217-71.197-71.197c-24.85.249-52.193 2.856-80.812 9.394l92.753 121.06z" fill="#fff5f5"/><path d="m502.584 223.227-106.906-106.907-307.665 279.358 135.214 106.907c57.715-13.184 120.629-42.367 178.809-100.548s87.365-121.095 100.548-178.81z" fill="#a05f4b"/><path d="m395.678 116.32-106.907-106.906c-57.715 13.184-120.629 42.367-178.809 100.548s-87.365 121.095-100.548 178.809l92.753 121.06z" fill="#c9885b"/><path d="m42.91 440.781 99.504 71.197c24.85-.249 52.193-2.856 80.813-9.394l-106.907-106.906z" fill="#e1ebf0"/><path d="m116.32 395.678-106.906-106.907c-6.538 28.62-9.145 55.962-9.394 80.813l57.044 85.351z" fill="#fff5f5"/><path d="m18.597 493.401s51.307 19.303 123.818 18.577l-71.197-71.197-40.464 12.157z" fill="#a05f4b"/><path d="m.02 369.584c-.726 72.511 18.577 123.818 18.577 123.818l52.62-52.62z" fill="#c9885b"/><path d="m122.249 240.999h267.5v30h-267.5z" fill="#724435" transform="matrix(.707 -.707 .707 .707 -106.038 255.999)"/><g fill="#e1ebf0"><path d="m353.053 226.599-33.827-33.827-17.683 3.53-3.53 17.683 33.827 33.827z"/><path d="m279.22 300.433 21.213-21.213-33.827-33.828-17.684 3.53-3.53 17.684z"/><path d="m226.599 353.053 21.213-21.213-33.827-33.827-17.683 3.53-3.53 17.683z"/></g><path d="m224.085 215.166h30v47.839h-30z" fill="#fff5f5" transform="matrix(.707 -.707 .707 .707 -99.033 239.086)"/><path d="m276.706 162.546h30v47.839h-30z" fill="#fff5f5" transform="matrix(.707 -.707 .707 .707 -46.412 260.882)"/><path d="m171.465 267.786h30v47.839h-30z" fill="#fff5f5" transform="matrix(.707 -.707 .707 .707 -151.653 217.289)"/></g></svg>