<svg id="Capa_1" enable-background="new 0 0 512 512" height="512" viewBox="0 0 512 512" width="512" xmlns="http://www.w3.org/2000/svg"><g><g><g><path d="m80.275 389.298-71.488 71.489c-11.716 11.716-11.716 30.711 0 42.426 11.716 11.716 30.711 11.716 42.426 0l71.489-71.489c5.858-5.858 5.858-15.355 0-21.213l-21.213-21.213c-5.858-5.858-15.356-5.858-21.214 0z" fill="#5e54ac"/><g><path d="m51.213 503.213 71.489-71.489c5.858-5.858 5.858-15.355 0-21.213l-10.606-10.607-103.309 103.309c11.716 11.716 30.71 11.716 42.426 0z" fill="#453d81"/></g><path d="m165.128 389.298c5.858-5.858 5.858-15.355 0-21.213l-21.213-21.213c-5.858-5.858-15.355-5.858-21.213 0l-42.426 42.426 42.426 42.426z" fill="#fff5f5"/><path d="m122.702 431.724 42.427-42.426c5.858-5.858 5.858-15.355 0-21.213l-10.607-10.606-53.033 53.033z" fill="#e7f1f9"/></g><path d="m426.761 297.371 21.213-21.213-42.426-42.426 42.426-42.426 28.121 28.121 21.213-21.213-28.121-28.121 35.866-35.866-21.213-21.213-35.866 35.866-31.82-31.82 53.033-53.033-21.213-21.213-53.033 53.033-31.82-31.82 35.866-35.866-21.212-21.215-35.866 35.866-28.121-28.121-21.213 21.213 28.121 28.121-42.426 42.426-42.426-42.426-21.213 21.213 42.426 42.426-42.426 42.426-28.121-28.121-21.213 21.213 28.121 28.121-35.866 35.866 21.213 21.213 35.866-35.866 31.82 31.82-53.033 53.033 21.213 21.213 53.033-53.033 31.82 31.82-35.866 35.866 21.213 21.213 35.866-35.866 28.121 28.121 21.213-21.213-28.121-28.121 42.426-42.426zm0-127.279-42.426 42.426-31.82-31.82 42.426-42.426zm-84.853-84.853 31.82 31.82-42.426 42.426-31.82-31.82zm-106.066 106.066 42.426-42.426 31.82 31.82-42.426 42.426zm84.853 84.853-31.82-31.82 42.426-42.426 31.82 31.82z" fill="#fff5f5"/><path d="m214.629 318.584 53.033-53.033 31.82 31.82-35.866 35.866 21.213 21.213 35.866-35.866 28.121 28.121 21.213-21.213-28.121-28.121 42.426-42.426 42.427 42.426 21.213-21.213-42.426-42.426 42.426-42.426 28.121 28.121 21.213-21.213-28.121-28.121 35.866-35.866-21.213-21.213-35.866 35.866-31.82-31.82 53.033-53.033-10.607-10.607-254.558 254.558zm180.312-180.312 31.82 31.82-42.427 42.426-31.82-31.82zm-63.639 63.639 31.82 31.82-42.426 42.426-31.82-31.82z" fill="#e7f1f9"/><path d="m511.24 167.056c4.417-48.585-10.518-92.709-42.052-124.244s-75.659-46.469-124.244-42.052c-47.561 4.324-93.841 26.792-130.315 63.265s-58.942 82.754-63.265 130.315c-1.368 15.048-.875 29.666 1.387 43.616l-30.049 108.915 42.426 42.426 108.915-30.049c13.95 2.263 28.568 2.755 43.616 1.387 47.561-4.324 93.841-26.792 130.315-63.265s58.942-82.753 63.266-130.314zm-339.559 186.367-13.104-13.104 13.176-49.573c6.004 10.073 13.235 19.408 21.664 27.837s17.765 15.659 27.837 21.664zm42.948-56.052c-52.637-52.637-43.12-147.798 21.213-212.132s159.495-73.85 212.132-21.213 43.12 147.798-21.213 212.132-159.495 73.85-212.132 21.213z" fill="#9ee2f8"/><path d="m447.974 64.026c52.637 52.637 43.12 147.798-21.213 212.132-64.334 64.334-159.495 73.85-212.132 21.213l-21.213 21.213c8.429 8.429 17.765 15.659 27.837 21.664l-49.573 13.176-6.552-6.552-21.213 21.213 21.213 21.213 108.915-30.049c13.95 2.263 28.568 2.755 43.616 1.387 47.561-4.324 93.841-26.792 130.315-63.265 36.474-36.474 58.942-82.754 63.265-130.315 4.417-48.585-10.518-92.709-42.052-124.244z" fill="#8cbcff"/></g><g><path d="m457 512c-30.327 0-55-24.673-55-55s24.673-55 55-55 55 24.673 55 55-24.673 55-55 55z" fill="#bee75e"/><path d="m457 402v110c30.327 0 55-24.673 55-55s-24.673-55-55-55z" fill="#00cb75"/></g></g></svg>